<svg xmlns="http://www.w3.org/2000/svg" version="1.1" xmlns:xlink="http://www.w3.org/1999/xlink" xmlns:svgjs="http://svgjs.dev/svgjs" width="2000" height="2250" viewBox="0 0 2000 2250"><g transform="matrix(1,0,0,1,0.0022017081398644223,0)"><svg viewBox="0 0 320 360" data-background-color="#ffffff" preserveAspectRatio="xMidYMid meet" height="2250" width="2000" xmlns="http://www.w3.org/2000/svg" xmlns:xlink="http://www.w3.org/1999/xlink"><g id="tight-bounds" transform="matrix(1,0,0,1,0.00010353528136874957,0)"><svg viewBox="0 0 320 360" height="360" width="320"><g><svg></svg></g><g><svg viewBox="0 0 320 360" height="360" width="320"><g><path d="M307.925 179.999l6.575-11.387c11.322-19.607 4.604-44.679-15.003-56.001l-11.387-6.575v-13.151c0-22.639-18.354-40.994-40.994-40.994h-13.151l-6.575-11.387c-11.322-19.607-36.393-26.325-56.001-15.003l-11.39 6.572-11.387-6.576c-19.607-11.318-44.679-4.6-56.001 15.007l-6.575 11.387h-13.151c-22.639 0-40.994 18.354-40.994 40.994v13.151l-11.387 6.575c-19.607 11.322-26.325 36.393-15.003 56.001l6.572 11.387-6.576 11.387c-11.318 19.607-4.6 44.679 15.007 56l11.387 6.576v13.15c0 22.639 18.354 40.994 40.994 40.994h13.151l6.575 11.387c11.322 19.607 36.393 26.325 56.001 15.003l11.387-6.571 11.387 6.575c19.607 11.322 44.679 4.604 56-15.003l6.576-11.387h13.15c22.639 0 40.994-18.354 40.994-40.994v-13.151l11.387-6.575c19.607-11.322 26.325-36.393 15.003-56.001zM297.702 115.716c8.655 4.996 14.842 13.062 17.428 22.713 2.586 9.65 1.261 19.734-3.735 28.384l-5.538 9.596-17.747-30.74v-35.494zM251.155 271.155l-57.791 33.365h-66.731l-57.791-33.365-33.365-57.791v-66.731l33.365-57.791 57.791-33.365h66.731l57.791 33.365 33.365 57.791v66.731zM284.517 220.539v31.351l-27.151 15.676zM247.566 277.366l-15.676 27.151h-31.351zM187.15 308.106l-27.151 15.676-27.151-15.676zM119.459 304.517h-31.352l-15.676-27.151zM62.632 267.566l-27.151-15.676v-31.351zM31.891 207.15l-15.675-27.151 15.675-27.151zM35.481 139.459v-31.352l27.151-15.676zM72.431 82.632l15.676-27.151h31.352zM132.848 51.891l27.151-15.675 27.151 15.675zM200.539 55.481h31.351l15.676 27.151zM257.366 92.431l27.151 15.676v31.352zM288.106 152.848l15.676 27.151-15.676 27.151zM247.112 55.481c9.992 0 19.384 3.889 26.452 10.956 7.063 7.063 10.956 16.46 10.957 26.452v11.079l-30.741-17.747-17.747-30.74zM173.18 28.606c8.655-4.996 18.735-6.322 28.385-3.735 9.65 2.586 17.716 8.777 22.712 17.428l5.538 9.596h-35.494l-30.741-17.747zM95.716 42.295c4.996-8.655 13.062-14.842 22.713-17.428 9.65-2.586 19.734-1.261 28.384 3.736l9.596 5.537-30.74 17.747h-35.494zM35.481 92.885c0-9.992 3.889-19.384 10.956-26.452 7.063-7.063 16.46-10.956 26.452-10.956h11.079l-17.747 30.74-30.74 17.747zM8.606 166.817c-4.996-8.655-6.322-18.735-3.735-28.385 2.586-9.65 8.777-17.716 17.428-22.712l9.596-5.538v35.495l-17.747 30.74zM22.295 244.281c-8.655-4.996-14.842-13.062-17.428-22.712-2.586-9.65-1.261-19.734 3.736-28.385l5.537-9.596 17.747 30.74v35.495zM72.885 304.517c-9.992 0-19.384-3.889-26.452-10.957-7.063-7.063-10.956-16.46-10.956-26.451v-11.08l30.74 17.747 17.747 30.741zM146.817 331.391c-8.655 4.996-18.735 6.322-28.385 3.735-9.65-2.586-17.716-8.777-22.712-17.428l-5.538-9.596h35.495l30.74 17.747zM224.281 317.702c-4.996 8.655-13.062 14.842-22.712 17.428-9.65 2.586-19.734 1.261-28.385-3.735l-9.596-5.538 30.74-17.747h35.495zM284.517 267.112c0 9.992-3.889 19.384-10.957 26.452-7.063 7.063-16.46 10.956-26.451 10.957h-11.08l17.747-30.741 30.741-17.747zM315.13 221.565c-2.586 9.65-8.777 17.716-17.428 22.712l-9.596 5.538v-35.494l17.747-30.741 5.538 9.596c4.996 8.658 6.326 18.739 3.739 28.389z" fill="#ff0033" fill-rule="nonzero" stroke="none" stroke-width="1" stroke-linecap="butt" stroke-linejoin="miter" stroke-miterlimit="10" stroke-dasharray="" stroke-dashoffset="0" font-family="none" font-weight="none" font-size="none" text-anchor="none" style="mix-blend-mode: normal" data-fill-palette-color="tertiary"></path></g><g transform="matrix(1,0,0,1,64,100.96693272519954)"><svg viewBox="0 0 192 158.06613454960092" height="158.06613454960092" width="192"><g><svg viewBox="0 0 192 158.06613454960092" height="158.06613454960092" width="192"><g><svg viewBox="0 0 192 158.06613454960092" height="158.06613454960092" width="192"><g><svg viewBox="0 0 192 158.06613454960092" height="158.06613454960092" width="192"><g id="textblocktransform"><svg viewBox="0 0 192 158.06613454960092" height="158.06613454960092" width="192" id="textblock"><g><svg viewBox="0 0 192 158.06613454960092" height="158.06613454960092" width="192"><g transform="matrix(1,0,0,1,0,0)"><svg width="192" viewBox="1.85 -35.5 43.85 36.1" height="158.06613454960092" data-palette-color="#ff0033"><path d="M13.05 0.6L13.05 0.6Q9.3 0.6 6.5-0.98 3.7-2.55 1.85-5.35L1.85-5.35 4.75-7.75Q6.35-5.4 8.35-4.13 10.35-2.85 13.05-2.85L13.05-2.85Q20.15-2.85 20.15-9.5L20.15-9.5Q20.15-12.2 18.85-13.6 17.55-15 14.35-15.8L14.35-15.8 11.75-16.45Q7.15-17.6 4.98-19.83 2.8-22.05 2.8-26.1L2.8-26.1Q2.8-30.75 5.7-33.13 8.6-35.5 13.4-35.5L13.4-35.5Q17.05-35.5 19.53-34.15 22-32.8 23.85-29.9L23.85-29.9 20.9-27.8Q19.55-29.9 17.82-30.98 16.1-32.05 13.25-32.05L13.25-32.05Q10.05-32.05 8.38-30.65 6.7-29.25 6.7-26.1L6.7-26.1Q6.7-23.55 8.08-22.25 9.45-20.95 12.5-20.2L12.5-20.2 15.1-19.55Q17.55-18.95 19.25-18.13 20.95-17.3 22.03-16.1 23.1-14.9 23.58-13.28 24.05-11.65 24.05-9.5L24.05-9.5Q24.05-4.55 21.13-1.98 18.2 0.6 13.05 0.6ZM31-34.9L45.7-34.9 45.7-8Q45.7-6 45.05-4.42 44.4-2.85 43.2-1.73 42-0.6 40.32 0 38.65 0.6 36.65 0.6L36.65 0.6Q32.65 0.6 30.47-1.53 28.3-3.65 27.65-7.1L27.65-7.1 31.25-8Q31.7-5.75 32.9-4.35 34.1-2.95 36.65-2.95L36.65-2.95Q39.05-2.95 40.37-4.38 41.7-5.8 41.7-8.75L41.7-8.75 41.7-31.4 31-31.4 31-34.9Z" opacity="1" transform="matrix(1,0,0,1,0,0)" fill="#ff0033" class="wordmark-text-0" data-fill-palette-color="primary" id="text-0"></path></svg></g></svg></g></svg></g></svg></g></svg></g></svg></g></svg></g></svg></g><defs></defs></svg><rect width="320" height="360" fill="none" stroke="none" visibility="hidden"></rect></g></svg></g></svg>