<svg xmlns="http://www.w3.org/2000/svg" version="1.1" xmlns:xlink="http://www.w3.org/1999/xlink" xmlns:svgjs="http://svgjs.dev/svgjs" width="300" height="300" viewBox="0 0 1500 1500"><rect width="1500" height="1500" fill="#000000"></rect><g transform="matrix(0.6666666666666666,0,0,0.6666666666666666,249.39393939393938,572.8203174012084)"><svg viewBox="0 0 396 140" data-background-color="#000000" preserveAspectRatio="xMidYMid meet" height="530" width="1500" xmlns="http://www.w3.org/2000/svg" xmlns:xlink="http://www.w3.org/1999/xlink"><g id="tight-bounds" transform="matrix(1,0,0,1,0.2400000000000091,0.20327046367214052)"><svg viewBox="0 0 395.52 139.59338036272834" height="139.59338036272834" width="395.52"><g><svg viewBox="0 0 650.5192180439919 229.59187054429503" height="139.59338036272834" width="395.52"><g transform="matrix(1,0,0,1,254.99921804399196,64.91035475692354)"><svg viewBox="0 0 395.52 99.77116103044796" height="99.77116103044796" width="395.52"><g id="textblocktransform"><svg viewBox="0 0 395.52 99.77116103044796" height="99.77116103044796" width="395.52" id="textblock"><g><svg viewBox="0 0 395.52 53.81179683597002" height="53.81179683597002" width="395.52"><g transform="matrix(1,0,0,1,0,0)"><svg width="395.52" viewBox="0.49 -38.43 291.23 39.89" height="53.81179683597002" data-palette-color="#89939e"><g class="wordmark-text-0" data-fill-palette-color="primary" id="text-0"><path d="M1.37-2.78L1.37-2.78 2.05-5.52Q6.3-3.22 10.4-3.22L10.4-3.22Q13.33-3.22 15.41-4.42 17.48-5.62 17.48-8.3L17.48-8.3Q17.48-10.69 15.72-12.67 13.96-14.65 11.47-16.16 8.98-17.68 6.49-19.26 4-20.85 2.25-23.17 0.49-25.49 0.49-28.32L0.49-28.32Q0.49-31.79 2.98-34.64 5.47-37.5 8.98-37.5L8.98-37.5Q11.67-37.5 14.97-36.43 18.26-35.35 20.51-34.28L20.51-34.28 19.92-32.32Q14.36-34.23 10.55-34.23L10.55-34.23Q8.2-34.23 6.54-32.71 4.88-31.2 4.88-28.81L4.88-28.81Q4.88-27 5.81-25.54 6.74-24.07 8.23-23 9.72-21.92 11.55-20.9 13.38-19.87 15.19-18.7 16.99-17.53 18.48-16.16 19.97-14.79 20.9-12.72 21.83-10.64 21.83-8.06L21.83-8.06Q21.83-4.39 19.48-2.08 17.14 0.24 13.38 0.24L13.38 0.24Q10.16 0.24 6.52-0.66 2.88-1.56 1.37-2.78ZM24.56-35.16L24.56-35.16 27.1-34.57Q27.24-32.57 27.32-28.17 27.39-23.78 27.49-22.12L27.49-22.12Q30.12-24.9 33.84-24.9L33.84-24.9Q37.16-24.9 39.57-22.56 41.99-20.21 41.99-16.31L41.99-16.31 41.99-0.24Q41.35 0.05 40.38 0.05L40.38 0.05Q39.3 0.05 38.43-0.15L38.43-0.15Q38.43-0.54 38.45-1.34 38.47-2.15 38.47-2.54L38.47-2.54Q38.47-4.44 38.33-9.11 38.18-13.77 38.18-16.89L38.18-16.89Q37.45-21.39 33.64-21.39L33.64-21.39Q31.98-21.39 30.37-20.48 28.76-19.58 28.02-18.36L28.02-18.36Q28.17-15.28 28.22-9.08 28.27-2.88 28.37-0.15L28.37-0.15Q27.19 0.05 26.36 0.05L26.36 0.05Q25.14 0.05 24.31-0.24L24.31-0.24Q24.41-2.64 24.41-7.81L24.41-7.81Q24.41-10.11 24.36-16.24 24.31-22.36 24.34-26.78 24.36-31.2 24.56-35.16ZM60.49-24.51L60.49-24.51 62.84-24.07 62.84-23.58Q62.84-20.26 63.25-12.35 63.67-4.44 64.01-0.15L64.01-0.15Q63.03 0.24 62.15 0.24L62.15 0.24Q61.37 0.24 60.4 0L60.4 0 60-1.27Q56.88 0.49 54.05 0.49L54.05 0.49Q51.95 0.49 50.41-0.49 48.87-1.46 48.04-2.91 47.21-4.35 46.72-6.47 46.24-8.59 46.11-10.33 45.99-12.06 45.99-14.21L45.99-14.21Q45.99-20.46 46.77-25.68L46.77-25.68 48.97-25.2Q49.31-23.58 49.31-21.68L49.31-21.68Q49.31-20.61 49.19-17.97 49.07-15.33 49.07-13.96L49.07-13.96Q49.07-11.57 49.29-9.84 49.51-8.11 50.12-6.47 50.73-4.83 52-3.96 53.27-3.08 55.17-3.08L55.17-3.08Q57.32-3.08 59.81-4.05L59.81-4.05Q59.91-5.86 60-13.31 60.1-20.75 60.49-24.51ZM71.28 0.93L71.28 0.93 68.55 1.46 67.96-37.11Q69.33-37.79 71.67-38.23L71.67-38.23Q71.62-37.11 71.62-34.72L71.62-34.72Q71.62-29.44 72.01-24.27L72.01-24.27Q74.36-25.59 76.99-25.59L76.99-25.59Q79.73-25.59 81.63-24.29 83.54-23 84.47-20.75 85.39-18.51 85.78-16.21 86.17-13.92 86.17-11.23L86.17-11.23Q86.17-8.3 85.27-5.59 84.37-2.88 82.15-0.85 79.92 1.17 76.75 1.17L76.75 1.17Q74.02 1.17 71.33-0.54L71.33-0.54Q71.28-0.05 71.28 0.93ZM71.87-19.48L71.87-19.48 71.72-3.76Q72.01-2.88 73.55-2.37 75.09-1.86 76.9-1.86L76.9-1.86Q78.61-1.86 79.75-2.51 80.9-3.17 81.49-4.42 82.07-5.66 82.29-7.03 82.51-8.4 82.51-10.16L82.51-10.16Q82.51-11.96 82.32-13.7 82.12-15.43 81.54-17.5 80.95-19.58 79.63-20.85 78.31-22.12 76.36-22.12L76.36-22.12Q74.94-22.12 73.7-21.41 72.45-20.7 71.87-19.48ZM90.37-35.16L90.37-35.16 92.91-34.57Q93.06-32.57 93.13-28.17 93.2-23.78 93.3-22.12L93.3-22.12Q95.94-24.9 99.65-24.9L99.65-24.9Q102.97-24.9 105.39-22.56 107.8-20.21 107.8-16.31L107.8-16.31 107.8-0.24Q107.17 0.05 106.19 0.05L106.19 0.05Q105.12 0.05 104.24-0.15L104.24-0.15Q104.24-0.54 104.26-1.34 104.29-2.15 104.29-2.54L104.29-2.54Q104.29-4.44 104.14-9.11 103.99-13.77 103.99-16.89L103.99-16.89Q103.26-21.39 99.45-21.39L99.45-21.39Q97.79-21.39 96.18-20.48 94.57-19.58 93.84-18.36L93.84-18.36Q93.98-15.28 94.03-9.08 94.08-2.88 94.18-0.15L94.18-0.15Q93.01 0.05 92.18 0.05L92.18 0.05Q90.96 0.05 90.13-0.24L90.13-0.24Q90.22-2.64 90.22-7.81L90.22-7.81Q90.22-10.11 90.18-16.24 90.13-22.36 90.15-26.78 90.18-31.2 90.37-35.16ZM113.56-21.09L113.56-21.09 112.59-23.58Q113.85-24.85 115.81-25.61 117.76-26.37 119.67-26.37L119.67-26.37Q127.92-26.37 127.92-12.11L127.92-12.11Q127.92-10.16 127.7-6.35 127.48-2.54 127.48-0.63L127.48-0.63Q127.09 0.88 125.96 0.88L125.96 0.88Q125.09 0.88 124.35 0 123.62-0.88 123.62-1.95L123.62-1.95Q123.62-2.29 123.67-2.44L123.67-2.44Q120.64 0.49 117.22 0.49L117.22 0.49Q114.64 0.49 112.71-1.39 110.78-3.27 110.78-5.96L110.78-5.96Q110.78-10.5 114.32-14.16 117.86-17.82 122.35-17.82L122.35-17.82Q122.55-17.82 122.74-17.8 122.94-17.77 123.21-17.72 123.47-17.68 123.62-17.68L123.62-17.68Q123.23-23.39 119.08-23.39L119.08-23.39Q116.64-23.39 113.56-21.09ZM123.77-5.81L123.77-5.81Q123.86-9.23 123.86-10.99L123.86-10.99Q123.86-12.45 123.77-15.09L123.77-15.09 123.38-15.09Q119.91-15.04 117.05-12.5 114.2-9.96 114.2-6.35L114.2-6.35Q114.2-4.79 115.15-3.86 116.1-2.93 117.47-2.93L117.47-2.93Q119.62-2.93 123.77-5.81ZM145.2-19.34L145.2-19.34Q145.4-16.6 145.49-12.87 145.59-9.13 145.66-5.32 145.74-1.51 145.79-0.15L145.79-0.15Q144.71 0.15 143.78 0.15L143.78 0.15Q143.05 0.15 142.42-0.1L142.42-0.1Q142.27-2 142.22-4.44 142.17-6.88 142.17-8.76 142.17-10.64 142.1-12.7 142.03-14.75 141.83-16.21 141.64-17.68 141.24-18.92 140.85-20.17 140.15-20.85 139.44-21.53 138.41-21.58L138.41-21.58Q137.39-21.58 136.75-21.14 136.12-20.7 135.39-19.53L135.39-19.53 135.39-0.2Q134.65 0.2 133.63 0.2L133.63 0.2Q132.85 0.2 131.87-0.05L131.87-0.05Q132.02-3.13 132.07-12.16 132.11-21.19 132.46-25.54L132.46-25.54 134.65-25.05 134.8-22.56Q136.26-24.85 138.51-24.85L138.51-24.85Q141.83-24.85 144.13-21.92L144.13-21.92Q145.54-24.85 148.72-24.85L148.72-24.85Q149.99-24.85 150.91-24.56L150.91-24.56Q156.24-23.05 156.24-10.94L156.24-10.94Q156.24-9.18 156.11-6.23 155.99-3.27 155.99-2.25L155.99-2.25Q155.99-0.88 156.14 0L156.14 0Q153.6 0.68 153.06 0.68L153.06 0.68Q152.57 0.68 152.38 0.59L152.38 0.59Q152.18-0.05 152.18-1.76L152.18-1.76Q152.18-2.83 152.33-6.18 152.48-9.52 152.48-11.43L152.48-11.43Q152.48-21.58 148.47-21.68L148.47-21.68Q147.54-21.63 146.86-21.12 146.18-20.61 145.2-19.34Z" fill="#89939e" data-fill-palette-color="primary"></path><path d="M170.2-4.79L170.2-4.79 172.69-6.05Q175.52-2.25 179.14-2.25L179.14-2.25Q181.87-2.25 182.73-4.2 183.58-6.15 183.58-10.6L183.58-10.6Q183.58-13.82 183.48-20.65 183.39-27.49 183.39-31.4L183.39-31.4Q183.39-34.03 183.43-35.4L183.43-35.4Q183.78-35.25 184.36-35.25L184.36-35.25Q184.56-35.25 184.92-35.28 185.29-35.3 185.53-35.3L185.53-35.3Q186.36-35.3 187-35.01L187-35.01Q186.9-31.69 186.9-29.93L186.9-29.93Q186.9-27.15 187.05-20.97 187.19-14.79 187.19-11.38L187.19-11.38Q187.19-9.18 187.17-8.06 187.15-6.93 187.05-5.4 186.95-3.86 186.73-3.15 186.51-2.44 186.1-1.46 185.68-0.49 185.09-0.12 184.51 0.24 183.61 0.68 182.7 1.12 181.53 1.25 180.36 1.37 178.8 1.37L178.8 1.37Q172.79 1.37 170.2-4.79ZM192.95-21.09L192.95-21.09 191.98-23.58Q193.25-24.85 195.2-25.61 197.15-26.37 199.06-26.37L199.06-26.37Q207.31-26.37 207.31-12.11L207.31-12.11Q207.31-10.16 207.09-6.35 206.87-2.54 206.87-0.63L206.87-0.63Q206.48 0.88 205.36 0.88L205.36 0.88Q204.48 0.88 203.74 0 203.01-0.88 203.01-1.95L203.01-1.95Q203.01-2.29 203.06-2.44L203.06-2.44Q200.03 0.49 196.62 0.49L196.62 0.49Q194.03 0.49 192.1-1.39 190.17-3.27 190.17-5.96L190.17-5.96Q190.17-10.5 193.71-14.16 197.25-17.82 201.74-17.82L201.74-17.82Q201.94-17.82 202.13-17.8 202.33-17.77 202.6-17.72 202.87-17.68 203.01-17.68L203.01-17.68Q202.62-23.39 198.47-23.39L198.47-23.39Q196.03-23.39 192.95-21.09ZM203.16-5.81L203.16-5.81Q203.26-9.23 203.26-10.99L203.26-10.99Q203.26-12.45 203.16-15.09L203.16-15.09 202.77-15.09Q199.3-15.04 196.44-12.5 193.59-9.96 193.59-6.35L193.59-6.35Q193.59-4.79 194.54-3.86 195.49-2.93 196.86-2.93L196.86-2.93Q199.01-2.93 203.16-5.81ZM229.47-37.3L228.84 1.27 226.15 0.73Q226.15-0.24 226.11-0.73L226.11-0.73Q223.52 0.93 220.64 0.93L220.64 0.93Q216.19 0.93 213.73-2.88 211.26-6.69 211.26-11.52L211.26-11.52Q211.26-14.01 211.63-16.21 211.99-18.41 212.9-20.73 213.8-23.05 215.73-24.41 217.66-25.78 220.39-25.78L220.39-25.78Q223.08-25.78 225.42-24.46L225.42-24.46Q225.81-29.64 225.81-34.91L225.81-34.91Q225.81-37.3 225.76-38.43L225.76-38.43Q228.11-37.99 229.47-37.3L229.47-37.3ZM225.71-3.96L225.71-3.96 225.57-19.68Q224.98-20.9 223.74-21.61 222.49-22.31 221.08-22.31L221.08-22.31Q219.17-22.31 217.83-21.09 216.49-19.87 215.92-17.85 215.36-15.82 215.14-14.06 214.92-12.3 214.92-10.35L214.92-10.35Q214.92-2.05 220.49-2.05L220.49-2.05Q222.35-2.05 223.88-2.56 225.42-3.08 225.71-3.96ZM233.67-35.16L233.67-35.16 236.21-34.57Q236.36-32.57 236.43-28.17 236.5-23.78 236.6-22.12L236.6-22.12Q239.24-24.9 242.95-24.9L242.95-24.9Q246.27-24.9 248.69-22.56 251.1-20.21 251.1-16.31L251.1-16.31 251.1-0.24Q250.47 0.05 249.49 0.05L249.49 0.05Q248.42 0.05 247.54-0.15L247.54-0.15Q247.54-0.54 247.56-1.34 247.59-2.15 247.59-2.54L247.59-2.54Q247.59-4.44 247.44-9.11 247.29-13.77 247.29-16.89L247.29-16.89Q246.56-21.39 242.75-21.39L242.75-21.39Q241.09-21.39 239.48-20.48 237.87-19.58 237.14-18.36L237.14-18.36Q237.28-15.28 237.33-9.08 237.38-2.88 237.48-0.15L237.48-0.15Q236.31 0.05 235.48 0.05L235.48 0.05Q234.26 0.05 233.43-0.24L233.43-0.24Q233.52-2.64 233.52-7.81L233.52-7.81Q233.52-10.11 233.48-16.24 233.43-22.36 233.45-26.78 233.48-31.2 233.67-35.16ZM256.86-21.09L256.86-21.09 255.89-23.58Q257.16-24.85 259.11-25.61 261.06-26.37 262.97-26.37L262.97-26.37Q271.22-26.37 271.22-12.11L271.22-12.11Q271.22-10.16 271-6.35 270.78-2.54 270.78-0.63L270.78-0.63Q270.39 0.88 269.26 0.88L269.26 0.88Q268.39 0.88 267.65 0 266.92-0.88 266.92-1.95L266.92-1.95Q266.92-2.29 266.97-2.44L266.97-2.44Q263.94 0.49 260.52 0.49L260.52 0.49Q257.94 0.49 256.01-1.39 254.08-3.27 254.08-5.96L254.08-5.96Q254.08-10.5 257.62-14.16 261.16-17.82 265.65-17.82L265.65-17.82Q265.85-17.82 266.04-17.8 266.24-17.77 266.51-17.72 266.77-17.68 266.92-17.68L266.92-17.68Q266.53-23.39 262.38-23.39L262.38-23.39Q259.94-23.39 256.86-21.09ZM267.07-5.81L267.07-5.81Q267.17-9.23 267.17-10.99L267.17-10.99Q267.17-12.45 267.07-15.09L267.07-15.09 266.68-15.09Q263.21-15.04 260.35-12.5 257.5-9.96 257.5-6.35L257.5-6.35Q257.5-4.79 258.45-3.86 259.4-2.93 260.77-2.93L260.77-2.93Q262.92-2.93 267.07-5.81ZM288.45-25.1L288.45-25.1 291.72-24.66Q290.8-20.8 288.79-12.92 286.79-5.03 285.67-0.1L285.67-0.1Q283.76 0.24 282.35 0.24L282.35 0.24Q281.18 0.24 280.15 0.05L280.15 0.05Q279.42-2.49 277.83-7.98 276.24-13.48 275.15-17.53 274.05-21.58 273.17-25.29L273.17-25.29 276.39-25.05 282.74-4.74Q283.52-7.08 284.4-10.01 285.28-12.94 285.81-15.01 286.35-17.09 287.23-20.43 288.11-23.78 288.45-25.1Z" fill="#dedede" data-fill-palette-color="secondary"></path></g></svg></g></svg></g><g transform="matrix(1,0,0,1,0,66.51547058581848)"><svg viewBox="0 0 215.35519303315084 33.25569044462947" height="33.25569044462947" width="215.35519303315084"><g transform="matrix(1,0,0,1,0,0)"><svg width="215.35519303315084" viewBox="2.5 -37 359.06 55.453125" height="33.25569044462947" data-palette-color="#dedede"><path d="M7.8-31.65Q7.85-31.6 6.55-32.75L6.55-32.75Q5.65-33.55 5.2-33.9L5.2-33.9Q5.4-35.25 6.2-35.8 7-36.35 8.3-36.65L8.3-36.65Q9.65-37 11.2-37L11.2-37Q12.7-37 14.25-36.7L14.25-36.7Q18.7-35.9 22.1-34.85 25.5-33.8 28.45-31.9L28.45-31.9Q30.5-30.65 31.9-28.95L31.9-28.95Q33.95-26.3 33.95-23.55L33.95-23.55Q33.95-21.2 32.4-18.7L32.4-18.7Q26.5-9.35 20.25-3.95L20.25-3.95Q16.45-0.6 11.85 1.55L11.85 1.55Q10.15 2.4 8.3 2.4L8.3 2.4Q6.1 2.4 4.05 1.15L4.05 1.15Q3.3 0.65 2.9 0.13 2.5-0.4 2.5-1.1L2.5-1.1 2.55-1.55 2.9-4.15Q3.5-8.75 4-11L4-11 4.25-12.1Q5.75-18.6 6.5-22.58 7.25-26.55 7.6-30.75L7.6-30.75 7.8-31.65ZM14.4-32.25Q13.8-32.3 12.8-32.15L12.8-32.15 11.7-32Q12.9-31 13.45-30.25 14-29.5 14-28.65L14-28.65Q14-28.45 13.9-27.95L13.9-27.95Q13.25-25.05 12.15-20.8L12.15-20.8 10.35-13.6Q9.15-8.7 8.25-4.5L8.25-4.5Q8.1-3.95 8.08-3.28 8.05-2.6 8.05-2.3L8.05-2.3Q8.5-2.1 8.55-2.1L8.55-2.1 9.2-2.35Q16.7-6 22-12.55L22-12.55Q24.15-15.3 25.63-17.75 27.1-20.2 27.85-22.9L27.85-22.9Q28.05-23.55 28.05-24.45L28.05-24.45Q28.05-26 27.28-27.25 26.5-28.5 25.15-29.15L25.15-29.15Q20.15-31.4 14.4-32.25L14.4-32.25ZM45.55-7.8Q45.05-7.5 44.1-7.5L44.1-7.5Q43.75-7.5 43.25-7.55 42.75-7.6 42.4-7.55L42.4-7.55Q42.8-5.9 44.3-4.88 45.8-3.85 47.65-3.85L47.65-3.85Q49.25-3.85 50.5-4.55L50.5-4.55Q52.35-5.5 53.7-6.8L53.7-6.8Q54.65-7.75 55.5-7.75L55.5-7.75Q56.05-7.75 56.45-7.2L56.45-7.2Q56.85-6.55 56.85-5.6L56.85-5.6Q56.85-4.6 56.45-4.05L56.45-4.05Q55.15-2.05 53.07-1.3 51-0.55 48.25-0.55L48.25-0.55Q45.4-0.55 42.75-1.8 40.1-3.05 38.22-5.23 36.35-7.4 35.75-10.05L35.75-10.05Q35.35-11.6 35.35-13.1L35.35-13.1Q35.35-15.45 36.67-16.9 38-18.35 40.95-19.65L40.95-19.65Q43.65-20.8 45.95-20.8L45.95-20.8Q47.6-20.8 49.15-20.3L49.15-20.3Q53.95-18.8 53.95-16.2L53.95-16.2Q53.95-14.55 52-12.2L52-12.2Q51.05-11.1 49.75-10.25 48.45-9.4 47.22-8.72 46-8.05 45.55-7.8L45.55-7.8ZM47.65-17.05Q47.6-17.3 47.27-17.48 46.95-17.65 46.9-17.7L46.9-17.7Q45.55-17.8 44.15-16.93 42.75-16.05 41.82-14.7 40.9-13.35 40.9-12.1L40.9-12.1 40.95-11.7Q41-11.5 41.47-11.2 41.95-10.9 42.05-11L42.05-11Q45.6-13.65 47.4-15.25L47.4-15.25Q47.7-15.55 47.7-16.35L47.7-16.35Q47.7-16.85 47.65-17.05L47.65-17.05ZM67.6-10.95Q67.8-10.55 68.05-9.65L68.05-9.65Q68.6-7.95 68.7-7.75L68.7-7.75Q69.75-9.65 70.65-11.5L70.65-11.5Q72.1-14.5 72.9-15.7L72.9-15.7Q74.35-17.9 76.35-19.6L76.35-19.6Q76.75-20 77.3-20L77.3-20Q77.8-20 78.12-19.6 78.45-19.2 78.55-18.6L78.55-18.6Q78.6-18.4 78.6-17.95L78.6-17.95Q78.6-16.85 78.2-15.75L78.2-15.75Q77.45-13.8 74.5-6.2L74.5-6.2 72.35-0.65Q71.9 0.6 70.92 1.28 69.95 1.95 68.85 1.95L68.85 1.95Q67.2 1.95 65.95 0.55L65.95 0.55Q65.2-0.35 64.4-2.55L64.4-2.55Q62.1-9.6 60.55-14.65L60.55-14.65Q60.4-15.05 60.12-15.68 59.85-16.3 59.85-16.7L59.85-16.7Q59.85-17.4 60.6-17.95L60.6-17.95Q61.35-18.5 62.2-18.5L62.2-18.5Q63.15-18.5 64.55-17.55L64.55-17.55Q65.55-16.8 66-15.85 66.45-14.9 66.85-13.35L66.85-13.35Q67.25-11.75 67.6-10.95L67.6-10.95ZM86.59-25.15Q88.54-28.4 92.64-30.85L92.64-30.85Q95.89-32.8 100.19-32.8L100.19-32.8Q103.24-32.8 106.09-31.78 108.94-30.75 110.79-28.9L110.79-28.9Q111.44-28.25 112.19-27.65L112.19-27.65Q113.34-26.65 113.54-26.4L113.54-26.4Q116.04-23.75 116.04-20.55L116.04-20.55Q116.04-18.05 114.44-15.45L114.44-15.45Q112.34-12 110.09-9.4 107.84-6.8 105.04-4.95L105.04-4.95Q100.29-1.8 95.94-1.8L95.94-1.8Q94.64-1.8 93.34-2.1L93.34-2.1Q88.99-3.05 86.29-6.18 83.59-9.3 83.59-13.3L83.59-13.3Q83.59-16.35 85.29-19.4L85.29-19.4Q85.39-19.65 85.72-19.9 86.04-20.15 86.24-20.3L86.24-20.3 87.39-19.75 88.49-19.2Q90.04-18.35 90.52-17.8 90.99-17.25 90.99-16.25L90.99-16.25Q90.99-15.55 90.84-14.35L90.84-14.35Q90.79-13.9 90.79-13.05L90.79-13.05Q90.79-11.2 91.24-8.6L91.24-8.6Q91.34-7.85 91.87-7.45 92.39-7.05 93.19-7.05L93.19-7.05Q93.59-7.05 93.84-7.1L93.84-7.1Q96.19-7.55 97.87-8.15 99.54-8.75 100.89-9.95L100.89-9.95Q103.39-12.1 105.24-14.1 107.09-16.1 108.49-18.4L108.49-18.4Q109.44-20 109.44-21.5L109.44-21.5Q109.44-22.75 108.89-23.95 108.34-25.15 107.29-26.65L107.29-26.65Q105.54-29.05 102.74-29.05L102.74-29.05Q101.74-29.05 100.69-28.75L100.69-28.75Q100.34-28.65 97.49-27.7L97.49-27.7Q97.19-27.6 96.87-27.5 96.54-27.4 96.19-27.3L96.19-27.3 90.49-25.65Q89.39-25.3 87.09-24.7L87.09-24.7 86.59-25.15ZM129.59-4Q128.09-2.4 126.34-2.4L126.34-2.4Q124.89-2.4 123.29-3.35L123.29-3.35 123.14 1.2Q122.89 6.2 122.89 9.9L122.89 9.9Q122.89 10.6 122.99 12.1L122.99 12.1Q123.09 13.6 123.09 14.3L123.09 14.3Q123.09 15.05 123.04 15.4L123.04 15.4Q122.99 15.85 122.44 16.38 121.89 16.9 121.34 17.05L121.34 17.05Q120.94 17.15 120.79 17.15L120.79 17.15Q119.64 17.15 118.57 16.15 117.49 15.15 117.54 14.05L117.54 14.05Q117.64 10.3 117.94 3.2L117.94 3.2 118.29-7.7Q118.39-10.7 117.94-12.75L117.94-12.75Q117.84-13.35 117.84-13.55L117.84-13.55Q117.84-14.35 118.32-14.8 118.79-15.25 119.59-15.35L119.59-15.35Q120.84-15.45 121.59-16.03 122.34-16.6 123.34-17.85L123.34-17.85Q125.14-20.1 127.29-20.1L127.29-20.1Q129.69-20.1 132.74-17.15L132.74-17.15Q134.14-15.8 134.14-13.5L134.14-13.5Q134.14-12.65 133.99-11.8L133.99-11.8Q133.64-9.7 132.52-7.9 131.39-6.1 129.59-4L129.59-4ZM124.94-12.35Q123.84-9.35 123.84-7L123.84-7Q123.84-6.45 123.89-6.2L123.89-6.2 124.49-5.9Q125.49-6.2 126.59-7.65 127.69-9.1 128.42-10.93 129.14-12.75 129.14-14.15L129.14-14.15Q129.14-14.75 128.89-15.35L128.89-15.35Q128.54-16 127.84-16L127.84-16Q126.94-16 126.54-15.35L126.54-15.35Q126.39-15.15 125.84-14.25 125.29-13.35 124.94-12.35L124.94-12.35ZM143.39 1.1Q139.19 1.1 138.04-2.5L138.04-2.5Q138.44-2.5 139.11-2.48 139.79-2.45 140.24-2.35L140.24-2.35Q140.94-2.25 141.24-2.25L141.24-2.25Q143.49-2.25 144.99-4.25L144.99-4.25Q146.04-5.7 146.04-7.2L146.04-7.2Q146.04-8.2 145.54-9.15L145.54-9.15Q144.44-11.1 142.84-13.45L142.84-13.45Q141.79-15 140.94-16.4L140.94-16.4Q139.94-18 139.94-19.95L139.94-19.95Q139.94-21.75 140.96-23.13 141.99-24.5 143.99-24.85L143.99-24.85 145.59-25.15Q148.19-25.65 149.49-25.65L149.49-25.65Q151.64-25.65 153.29-24.65L153.29-24.65Q153.64-24.4 154.01-23.78 154.39-23.15 154.59-22.8L154.59-22.8Q154.24-22.65 153.61-22.33 152.99-22 152.54-21.95L152.54-21.95Q151.84-21.85 150.44-21.85L150.44-21.85Q149.09-21.85 148.39-21.8L148.39-21.8Q146.79-21.65 145.86-20.73 144.94-19.8 144.94-18.5L144.94-18.5Q144.94-17.5 145.54-16.45L145.54-16.45Q146.89-14.2 149.29-11.3L149.29-11.3Q151.09-9.05 151.09-6.65L151.09-6.65Q151.09-5.35 150.49-3.9L150.49-3.9Q148.44 1.1 143.39 1.1L143.39 1.1ZM181.83-18.6Q181.83-18.4 181.88-18.18 181.93-17.95 181.98-17.75L181.98-17.75Q182.38-17.7 183.18-17.7L183.18-17.7Q186.68-17.7 190.38-19.2L190.38-19.2Q191.43-19.6 192.13-19.6L192.13-19.6Q193.53-19.6 194.43-18.3L194.43-18.3Q194.88-17.6 194.88-17.1L194.88-17.1Q194.88-16.5 194.23-15.85L194.23-15.85Q192.23-14 189.98-13.75L189.98-13.75Q187.98-13.5 183.98-12.9L183.98-12.9 180.48-12.4Q179.68-10.65 179.68-9L179.68-9Q179.68-6.6 181.36-5.03 183.03-3.45 185.93-3.35L185.93-3.35Q188.88-3.3 193.48-3.75L193.48-3.75 194.23-3.8Q195.48-3.8 196.31-3.23 197.13-2.65 197.88-1.2L197.88-1.2Q197.33 0 196.33 0.43 195.33 0.85 193.73 1.05L193.73 1.05Q192.08 1.25 189.98 1.25L189.98 1.25Q185.43 1.25 181.78-0.2L181.78-0.2Q175.33-2.7 173.53-8.85L173.53-8.85Q173.28-9.7 173.28-10.68 173.28-11.65 173.28-11.85L173.28-11.85Q173.28-13.55 171.63-14.35L171.63-14.35Q170.28-15.1 169.56-15.8 168.83-16.5 168.63-17.9L168.63-17.9 174.28-18.25 176.83-25.6Q176.93-25.95 177.06-26.48 177.18-27 177.33-27.3L177.33-27.3Q177.78-28.3 177.78-28.95L177.78-28.95Q177.78-29.95 176.83-30.7L176.83-30.7Q176.48-30.95 176.26-31.63 176.03-32.3 175.83-32.7L175.83-32.7 176.93-33.05Q177.73-33.25 178.08-33.4L178.08-33.4Q178.28-33.5 178.93-33.77 179.58-34.05 179.68-34.4L179.68-34.4Q180.03-35.25 180.56-35.55 181.08-35.85 181.83-35.85L181.83-35.85Q182.33-35.85 183.33-35.75L183.33-35.75Q183.63-35.75 183.96-35.63 184.28-35.5 184.48-35.3L184.48-35.3Q185.63-34.1 187.03-33.7 188.43-33.3 190.33-33.3L190.33-33.3 192.48-33.3 196.68-33.3Q200.93-33.3 203.03-33.2L203.03-33.2Q204.13-33.15 205.83-32.25L205.83-32.25Q206.13-32.1 206.31-31.68 206.48-31.25 206.48-30.85L206.48-30.85Q206.48-30.65 206.13-30.38 205.78-30.1 205.48-30L205.48-30Q202.08-29.1 200.33-28.95L200.33-28.95Q197.63-28.7 192.23-28.3L192.23-28.3Q190.98-28.25 188.23-28.05L188.23-28.05Q188.03-28.05 187.53-28.18 187.03-28.3 186.78-28.3L186.78-28.3Q184.93-28.3 184.43-26.75L184.43-26.75Q183.08-22.75 181.88-18.8L181.88-18.8 181.83-18.6ZM215.73-18.85Q215.73-18.55 215.63-18.07 215.53-17.6 215.58-17.45L215.58-17.45Q219.03-18.2 221.43-18.2L221.43-18.2Q225.18-18.2 227.08-14.6L227.08-14.6Q228.63-11.55 228.63-7.85L228.63-7.85Q228.63-6.9 228.43-5.1L228.43-5.1Q228.28-3.9 227.48-3.18 226.68-2.45 225.58-2.45L225.58-2.45Q224.43-2.45 223.96-2.88 223.48-3.3 223.41-3.85 223.33-4.4 223.33-5.6L223.33-5.6 223.28-6.65Q223.18-9.65 222.88-11.85L222.88-11.85Q222.73-12.75 222.21-13.13 221.68-13.5 220.83-13.5L220.83-13.5Q220.03-13.5 218.93-13.25L218.93-13.25Q217.23-12.8 216.66-12.55 216.08-12.3 214.98-11.5L214.98-11.5Q214.63-11.25 214.48-10.5 214.33-9.75 214.33-9.65L214.33-9.65Q213.68-6.45 212.93-2L212.93-2Q212.88-1.8 212.73-1.05 212.58-0.3 212.16 0.03 211.73 0.35 210.93 0.25L210.93 0.25Q207.78-0.15 207.73-2.4L207.73-2.4Q207.68-5.3 208.18-9.25L208.18-9.25Q208.53-12.1 208.83-13.85L208.83-13.85Q208.93-14.65 209.11-15.8 209.28-16.95 209.43-18.45L209.43-18.45Q209.58-19.6 209.73-20.15 209.88-20.7 210.43-21.08 210.98-21.45 212.13-21.45L212.13-21.45Q213.58-21.45 214.53-20.8 215.48-20.15 215.73-18.95L215.73-18.95 215.73-18.85ZM249.88-12.6Q249.73-9 249.38-7.15 249.03-5.3 248-3.63 246.98-1.95 244.68 0.25L244.68 0.25 246.43 1.2Q248.03 2.1 248.78 2.45L248.78 2.45Q251.03 3.5 252.18 5.13 253.33 6.75 253.33 8.7L253.33 8.7Q253.33 11.1 251.73 13.45L251.73 13.45Q250.03 15.95 247.48 17.18 244.93 18.4 242.03 18.45L242.03 18.45Q239.88 18.5 237.63 17.75L237.63 17.75Q236.58 17.4 235.53 16.23 234.48 15.05 233.85 13.6 233.23 12.15 233.28 11.05L233.28 11.05Q233.33 10.8 233.48 10.53 233.63 10.25 233.83 10.2L233.83 10.2Q233.88 10.15 234.03 10.15L234.03 10.15Q234.18 10.15 234.45 10.28 234.73 10.4 234.83 10.45L234.83 10.45Q235.08 10.55 235.18 10.9L235.18 10.9Q235.88 12.45 236.73 13.35 237.58 14.25 238.98 14.15L238.98 14.15Q244.13 13.8 246.03 11.3L246.03 11.3Q246.68 10.5 247.1 9.47 247.53 8.45 247.53 7.55L247.53 7.55Q247.53 6.25 246.9 5.65 246.28 5.05 244.98 4.8L244.98 4.8Q243.58 4.55 242.3 4.1 241.03 3.65 239.23 2.75L239.23 2.75Q238.33 2.3 237.98 1.95 237.63 1.6 237.63 1.1L237.63 1.1Q237.63 0.6 238.23-1.45L238.23-1.45Q238.33-1.75 237.3-2.45 236.28-3.15 235.53-3.6L235.53-3.6Q232.83-5.2 232.83-8.8L232.83-8.8Q232.83-9.8 232.98-10.7L232.98-10.7Q233.88-16.2 238.33-18.5L238.33-18.5Q239.38-19.05 240.53-19.05L240.53-19.05Q241.38-19.05 242.28-18.8 243.18-18.55 243.33-18.5L243.33-18.5 244.38-18.2Q245.13-18 245.83-18L245.83-18Q246.78-18 247.55-18.35 248.33-18.7 249.13-19.45L249.13-19.45Q250.28-20.4 251.58-20.4L251.58-20.4Q252.53-20.4 253.28-19.88 254.03-19.35 254.38-18.35L254.38-18.35Q254.48-17.95 254.48-17.7L254.48-17.7Q254.48-17.25 254.33-17L254.33-17Q254.18-16.8 253.48-15.7L253.48-15.7Q253.13-15.05 252.83-14.6 252.53-14.15 251.88-13.6L251.88-13.6Q251.43-13.35 250.93-13.23 250.43-13.1 250.15-13 249.88-12.9 249.88-12.6L249.88-12.6ZM239.38-13.35Q237.83-11.55 237.83-9.7L237.83-9.7Q237.83-8.4 238.65-7.23 239.48-6.05 241.18-5.2L241.18-5.2Q243.08-5.95 244.13-7.8 245.18-9.65 245.18-11.85L245.18-11.85Q245.18-13.2 244.78-14.3 244.38-15.4 243.18-16L243.18-16Q240.88-15.1 239.38-13.35L239.38-13.35ZM262.28-23.3Q262.18-23 261.55-22.65 260.93-22.3 260.53-22L260.53-22 259.13-22.75Q257.08-23.85 256.33-24.5L256.33-24.5Q255.93-24.8 255.93-25.25L255.93-25.25Q255.93-25.55 256.15-25.78 256.38-26 256.83-26L256.83-26Q258.78-26 261.58-25L261.58-25Q261.88-24.95 262.13-24.33 262.38-23.7 262.28-23.3L262.28-23.3ZM257.78-14Q257.93-14.65 257.98-14.95 258.03-15.25 258.03-15.6L258.03-15.6Q258.03-16.3 258.45-16.7 258.88-17.1 260.08-17.1L260.08-17.1Q261.48-17.1 262.55-16.23 263.63-15.35 263.88-13.95L263.88-13.95Q264.03-13.25 264.08-12.4 264.13-11.55 264.13-11.3L264.13-11.3 264.83-2.75Q264.98-1.4 264.45-0.68 263.93 0.05 262.48 0.05L262.48 0.05Q261.23 0.05 260.35-0.65 259.48-1.35 259.28-2.45L259.28-2.45 257.98-13.05 257.78-14ZM277.07-18.85Q277.07-18.55 276.97-18.07 276.87-17.6 276.92-17.45L276.92-17.45Q280.37-18.2 282.77-18.2L282.77-18.2Q286.52-18.2 288.42-14.6L288.42-14.6Q289.97-11.55 289.97-7.85L289.97-7.85Q289.97-6.9 289.77-5.1L289.77-5.1Q289.62-3.9 288.82-3.18 288.02-2.45 286.92-2.45L286.92-2.45Q285.77-2.45 285.3-2.88 284.82-3.3 284.75-3.85 284.67-4.4 284.67-5.6L284.67-5.6 284.62-6.65Q284.52-9.65 284.22-11.85L284.22-11.85Q284.07-12.75 283.55-13.13 283.02-13.5 282.17-13.5L282.17-13.5Q281.37-13.5 280.27-13.25L280.27-13.25Q278.57-12.8 278-12.55 277.42-12.3 276.32-11.5L276.32-11.5Q275.97-11.25 275.82-10.5 275.67-9.75 275.67-9.65L275.67-9.65Q275.02-6.45 274.27-2L274.27-2Q274.22-1.8 274.07-1.05 273.92-0.3 273.5 0.03 273.07 0.35 272.27 0.25L272.27 0.25Q269.12-0.15 269.07-2.4L269.07-2.4Q269.02-5.3 269.52-9.25L269.52-9.25Q269.87-12.1 270.17-13.85L270.17-13.85Q270.27-14.65 270.45-15.8 270.62-16.95 270.77-18.45L270.77-18.45Q270.92-19.6 271.07-20.15 271.22-20.7 271.77-21.08 272.32-21.45 273.47-21.45L273.47-21.45Q274.92-21.45 275.87-20.8 276.82-20.15 277.07-18.95L277.07-18.95 277.07-18.85ZM304.02-7.8Q303.52-7.5 302.57-7.5L302.57-7.5Q302.22-7.5 301.72-7.55 301.22-7.6 300.87-7.55L300.87-7.55Q301.27-5.9 302.77-4.88 304.27-3.85 306.12-3.85L306.12-3.85Q307.72-3.85 308.97-4.55L308.97-4.55Q310.82-5.5 312.17-6.8L312.17-6.8Q313.12-7.75 313.97-7.75L313.97-7.75Q314.52-7.75 314.92-7.2L314.92-7.2Q315.32-6.55 315.32-5.6L315.32-5.6Q315.32-4.6 314.92-4.05L314.92-4.05Q313.62-2.05 311.55-1.3 309.47-0.55 306.72-0.55L306.72-0.55Q303.87-0.55 301.22-1.8 298.57-3.05 296.7-5.23 294.82-7.4 294.22-10.05L294.22-10.05Q293.82-11.6 293.82-13.1L293.82-13.1Q293.82-15.45 295.15-16.9 296.47-18.35 299.42-19.65L299.42-19.65Q302.12-20.8 304.42-20.8L304.42-20.8Q306.07-20.8 307.62-20.3L307.62-20.3Q312.42-18.8 312.42-16.2L312.42-16.2Q312.42-14.55 310.47-12.2L310.47-12.2Q309.52-11.1 308.22-10.25 306.92-9.4 305.7-8.72 304.47-8.05 304.02-7.8L304.02-7.8ZM306.12-17.05Q306.07-17.3 305.75-17.48 305.42-17.65 305.37-17.7L305.37-17.7Q304.02-17.8 302.62-16.93 301.22-16.05 300.3-14.7 299.37-13.35 299.37-12.1L299.37-12.1 299.42-11.7Q299.47-11.5 299.95-11.2 300.42-10.9 300.52-11L300.52-11Q304.07-13.65 305.87-15.25L305.87-15.25Q306.17-15.55 306.17-16.35L306.17-16.35Q306.17-16.85 306.12-17.05L306.12-17.05ZM325.92-7.8Q325.42-7.5 324.47-7.5L324.47-7.5Q324.12-7.5 323.62-7.55 323.12-7.6 322.77-7.55L322.77-7.55Q323.17-5.9 324.67-4.88 326.17-3.85 328.02-3.85L328.02-3.85Q329.62-3.85 330.87-4.55L330.87-4.55Q332.72-5.5 334.07-6.8L334.07-6.8Q335.02-7.75 335.87-7.75L335.87-7.75Q336.42-7.75 336.82-7.2L336.82-7.2Q337.22-6.55 337.22-5.6L337.22-5.6Q337.22-4.6 336.82-4.05L336.82-4.05Q335.52-2.05 333.44-1.3 331.37-0.55 328.62-0.55L328.62-0.55Q325.77-0.55 323.12-1.8 320.47-3.05 318.59-5.23 316.72-7.4 316.12-10.05L316.12-10.05Q315.72-11.6 315.72-13.1L315.72-13.1Q315.72-15.45 317.04-16.9 318.37-18.35 321.32-19.65L321.32-19.65Q324.02-20.8 326.32-20.8L326.32-20.8Q327.97-20.8 329.52-20.3L329.52-20.3Q334.32-18.8 334.32-16.2L334.32-16.2Q334.32-14.55 332.37-12.2L332.37-12.2Q331.42-11.1 330.12-10.25 328.82-9.4 327.59-8.72 326.37-8.05 325.92-7.8L325.92-7.8ZM328.02-17.05Q327.97-17.3 327.64-17.48 327.32-17.65 327.27-17.7L327.27-17.7Q325.92-17.8 324.52-16.93 323.12-16.05 322.19-14.7 321.27-13.35 321.27-12.1L321.27-12.1 321.32-11.7Q321.37-11.5 321.84-11.2 322.32-10.9 322.42-11L322.42-11Q325.97-13.65 327.77-15.25L327.77-15.25Q328.07-15.55 328.07-16.35L328.07-16.35Q328.07-16.85 328.02-17.05L328.02-17.05ZM346.72-21.2Q346.87-20.7 346.76-19.65L346.76-19.65 346.17-13.75Q346.42-13.95 346.92-15.18 347.42-16.4 347.87-17.18 348.31-17.95 348.56-18.2L348.56-18.2Q350.92-20.45 353.87-20.9 356.81-21.35 360.37-21.3L360.37-21.3Q360.72-21.3 361.14-21.03 361.56-20.75 361.56-20.58 361.56-20.4 361.26-20.03 360.97-19.65 360.72-19.55L360.72-19.55Q357.72-18.55 355.44-17.25 353.17-15.95 351.51-13.85L351.51-13.85Q347.62-8.9 347.01-3.65L347.01-3.65Q346.87-2.25 346.17-1.78 345.47-1.3 344.22-1.3L344.22-1.3Q342.81-1.3 341.72-2.5 340.62-3.7 340.62-5.15L340.62-5.15Q340.67-10.45 340.67-21.05L340.67-21.05Q340.67-22.5 341.31-23.08 341.97-23.65 343.67-23.65L343.67-23.65Q344.92-23.65 345.79-22.95 346.67-22.25 346.72-21.2L346.72-21.2Z" opacity="1" transform="matrix(1,0,0,1,0,0)" fill="#dedede" class="slogan-text-1" data-fill-palette-color="secondary" id="text-1"></path></svg></g></svg></g></svg></g></svg></g><g><svg viewBox="0 0 229.59187054429503 229.59187054429503" height="229.59187054429503" width="229.59187054429503"><g><svg></svg></g><g id="icon-0"><svg viewBox="0 0 229.59187054429503 229.59187054429503" height="229.59187054429503" width="229.59187054429503"><g><path d="M0 114.796c0-63.4 51.396-114.796 114.796-114.796 63.4 0 114.796 51.396 114.796 114.796 0 63.4-51.396 114.796-114.796 114.796-63.4 0-114.796-51.396-114.796-114.796zM114.796 224.739c60.72 0 109.943-49.223 109.943-109.943 0-60.72-49.223-109.943-109.943-109.943-60.72 0-109.943 49.223-109.943 109.943 0 60.72 49.223 109.943 109.943 109.943z" data-fill-palette-color="accent" fill="#dedede" stroke="transparent"></path></g><g transform="matrix(1,0,0,1,46.289247528150156,67.27292204466491)"><svg viewBox="0 0 137.01337548799472 95.04602645496523" height="95.04602645496523" width="137.01337548799472"><g><svg xmlns="http://www.w3.org/2000/svg" xmlns:xlink="http://www.w3.org/1999/xlink" version="1.1" x="0" y="0" viewBox="1.539999999999992 16.323999999999998 97.09400000000001 67.35399999999998" enable-background="new 0 0 100 100" xml:space="preserve" height="95.04602645496523" width="137.01337548799472" class="icon-cg-0" data-fill-palette-color="accent" id="cg-0"><g fill="#dedede" data-fill-palette-color="accent"><g fill="#dedede" data-fill-palette-color="accent"><g fill="#dedede" data-fill-palette-color="accent"><path fill-rule="evenodd" clip-rule="evenodd" d="M98.634 63.623c0-11.078-8.979-20.057-20.056-20.057-1.711 0-3.363 0.237-4.948 0.641 0.232-1.335 0.36-2.705 0.36-4.106 0-13.132-10.646-23.777-23.777-23.777-13.131 0-23.777 10.645-23.777 23.777 0 1.425 0.132 2.818 0.373 4.174-1.666-0.448-3.408-0.709-5.214-0.709-11.077 0-20.055 8.979-20.055 20.057 0 10.449 7.993 19.022 18.198 19.961 0.113 0.05 0.236 0.079 0.367 0.079h1.2c0.098 0.001 0.192 0.015 0.29 0.015s0.192-0.014 0.29-0.015h56.404c0.098 0.001 0.192 0.015 0.29 0.015s0.192-0.014 0.29-0.015h0.512c0.061 0 0.113-0.023 0.171-0.034C90.173 83.118 98.634 74.371 98.634 63.623z" fill="#dedede" data-fill-palette-color="accent"></path></g></g></g></svg></g></svg></g></svg></g></svg></g></svg></g><defs></defs></svg><rect width="395.52" height="139.59338036272834" fill="none" stroke="none" visibility="hidden"></rect></g></svg></g></svg>